<svg width="92" height="25" viewBox="0 0 92 25" fill="none" xmlns="http://www.w3.org/2000/svg">
<g id="ICONS_22" clip-path="url(#clip0_44_2463)">
<path id="Vector" d="M2.07009 16.0714L3.83155 16.0865H4.34343L4.53162 16.0714L7.01573 16.1166C7.45986 16.1467 7.70074 16.4177 7.75344 16.9371C7.77602 17.1404 7.7986 17.3511 7.82871 17.5544C7.89646 18.0437 8.25026 18.2921 8.89763 18.2921C9.54501 18.2921 9.9515 17.991 10.1246 17.3812C10.2526 16.9145 10.3128 16.35 10.3128 15.7026V15.3187H10.2677L10.2074 13.2335C10.1698 11.871 10.1472 9.85363 10.1472 7.18886C10.1472 4.52409 10.1698 2.58949 10.2074 1.3926L10.1924 1.37755C10.1924 1.30227 10.2225 1.24205 10.2827 1.20441L10.4709 1.1743L11.1936 1.18936H16.5758L17.6522 1.1743H19.09C19.1653 1.1743 19.2255 1.21947 19.2632 1.3098C19.2406 1.5281 19.233 1.85179 19.233 2.29591V2.52927L19.218 2.77768L19.1879 3.53044C19.1201 5.38976 19.0825 8.15992 19.0825 11.8259V13.4443C19.0825 14.8294 19.0825 15.9811 19.0674 16.907C19.0524 17.8329 18.8265 18.7588 18.3824 19.6847C17.9383 20.6106 17.3812 21.3483 16.7038 21.9053C16.0338 22.4624 15.2585 22.914 14.3702 23.2829C12.812 23.9227 11.186 24.2389 9.49231 24.2389C7.7986 24.2389 6.38341 24.0658 5.24674 23.727C4.23804 23.4711 3.40248 23.0796 2.74005 22.5602C2.07762 22.0333 1.56574 21.5365 1.20442 21.0698C0.414019 20.0008 0.0150552 18.6986 0.0150552 17.1479V16.764L0 16.5908C0 16.2069 0.0602209 16.0187 0.173135 16.0187L2.07009 16.079V16.0714Z" fill="black"/>
<path id="Vector_2" d="M21.0098 12.3227L21.0399 11.999C21.1603 10.772 21.3109 9.68803 21.5066 8.73955C21.7023 7.79107 22.0185 6.91034 22.4626 6.08231C23.5089 4.26815 24.9768 2.89813 26.8512 1.95718C28.7256 1.02375 30.7505 0.549515 32.926 0.549515C35.1015 0.549515 37.0662 0.986116 38.8427 1.85932C39.9041 2.37872 40.7321 3.03363 41.3268 3.83155C42.471 5.2618 43.2313 6.57913 43.5926 7.78355C43.9539 8.98796 44.1346 10.3806 44.1346 11.9614C44.1346 15.4692 43.4119 18.1491 41.9591 19.9858L41.2816 20.8816C40.3708 21.943 39.0836 22.756 37.4124 23.3281C35.7413 23.9002 34.0927 24.2013 32.4593 24.2163C29.659 24.2163 27.3555 23.6292 25.564 22.4549C22.5228 20.4826 21.0098 17.1027 21.0098 12.3076V12.3227ZM29.4633 12.2023C29.4633 12.2023 29.4633 12.2399 29.4482 12.2775V12.3227C29.4106 12.7367 29.388 13.1959 29.388 13.7078C29.388 14.2197 29.4332 14.7541 29.516 15.3262C29.5988 15.8983 29.7343 16.4629 29.93 17.035C30.1182 17.6071 30.4193 18.0663 30.8182 18.4201C31.2473 18.7964 31.7291 18.9771 32.2635 18.9771C32.798 18.9771 33.2497 18.9018 33.6185 18.7513C33.9874 18.6007 34.296 18.405 34.5444 18.1716C34.7928 17.9383 35.0111 17.6146 35.1993 17.2156C35.666 16.1467 35.9069 14.4906 35.9069 12.2474C35.9069 10.0042 35.6434 8.36317 35.124 7.4448C34.5971 6.52644 33.8067 6.06725 32.7528 6.06725C32.2259 6.06725 31.7592 6.19522 31.3602 6.45116C30.9613 6.7071 30.6677 6.97056 30.4644 7.24156C30.2612 7.51255 30.058 8.09971 29.8472 8.98796C29.6364 9.88375 29.531 10.7043 29.531 11.457L29.4708 12.2098L29.4633 12.2023Z" fill="black"/>
<path id="Vector_3" d="M50.676 0.91837L52.5428 0.88826C54.0408 0.88826 54.7936 0.940953 54.7936 1.04634C54.771 1.08398 54.7635 1.13667 54.7635 1.20442C54.628 1.53563 54.4548 2.00987 54.2516 2.62714C54.0483 3.2444 53.9128 3.63584 53.8526 3.80144L53.4235 4.99081C52.7084 7.13617 52.1062 8.82236 51.6169 10.0494C51.2029 10.373 50.2168 10.5311 48.6586 10.5311H47.3186L47.1305 10.5462H46.1293C45.6776 10.5462 45.4142 10.5085 45.3389 10.4257C45.3389 10.4257 45.1658 10.3354 45.2937 9.80095C45.3389 9.62029 45.3765 9.47726 45.3991 9.3794L45.9562 7.32436C45.9185 7.31684 47.6047 1.9346 47.7628 0.910843C47.8832 0.903315 48.0338 0.895788 48.2295 0.895788H50.6684L50.676 0.91837Z" fill="black"/>
<path id="Vector_4" d="M56.2538 17.306L64.0298 17.1705C64.2255 17.1705 64.3911 17.3361 64.5191 17.6673C64.6546 17.9985 64.7826 18.262 64.9105 18.4577C65.2116 18.9244 65.716 19.1653 66.4161 19.1653C67.1161 19.1653 67.6807 18.9997 68.1173 18.676C68.5464 18.3448 68.7647 17.9232 68.7647 17.4038C68.7647 16.8844 68.6292 16.5306 68.3657 16.3349C68.1022 16.1392 67.8087 15.9585 67.5 15.7779C67.1839 15.5972 66.7247 15.4542 66.1074 15.3563C65.4977 15.2585 65.1589 15.1982 65.0987 15.1832H65.1288L64.2933 14.9649C63.7513 14.867 63.2996 14.7616 62.9383 14.6412C60.5972 14.0164 58.9035 13.226 57.8572 12.2775C56.8108 11.329 56.2914 10.0494 56.2914 8.43844C56.2914 7.27166 56.5097 6.22533 56.9388 5.2919C57.3679 4.35848 57.9324 3.59819 58.6325 3.01104C60.6424 1.31733 63.4125 0.466705 66.9505 0.466705C69.7658 0.466705 71.9714 0.978583 73.5823 1.99481H73.5673C74.5986 2.74004 75.2986 3.47022 75.6825 4.19287C76.0665 4.91552 76.3073 5.80378 76.4052 6.85764L76.0213 7.24155C73.4468 7.33941 71.1584 7.3921 69.1712 7.3921C68.5765 7.3921 68.2152 7.21897 68.0947 6.86517C68.042 6.71462 67.9893 6.5716 67.9366 6.42104C67.8011 6.06725 67.357 5.89411 66.6118 5.89411H66.5516C65.9719 5.89411 65.4751 6.02961 65.0686 6.3006C64.6546 6.5716 64.4514 6.83506 64.4438 7.08347C64.4438 7.33941 64.4965 7.55018 64.6019 7.71579C64.7148 7.8814 64.8353 8.0169 64.9632 8.11476C65.0912 8.21261 65.2869 8.31047 65.5504 8.41586C65.8138 8.52125 66.0171 8.58899 66.1451 8.61911C66.2806 8.65674 66.4838 8.70944 66.7699 8.78471L67.2817 8.92021C67.485 8.98043 68.0872 9.12346 69.0808 9.36434C70.0745 9.60522 70.9025 9.82352 71.5725 10.0418V10.0268C73.6576 10.7344 75.0879 11.6151 75.8406 12.669C76.6009 13.7228 76.9773 14.9498 76.9773 16.35C76.9773 20.0837 74.7491 22.5075 70.2852 23.6141C68.9905 23.9378 67.6129 24.1711 66.1375 24.3066C64.3309 24.3066 62.5469 24.0432 60.7854 23.5162C59.0239 22.9893 57.8421 22.1236 57.2399 20.9267C56.8409 20.3471 56.5699 19.8202 56.4344 19.3309C56.299 18.8416 56.186 18.1641 56.0957 17.2909C56.1258 17.2984 56.171 17.306 56.2312 17.306H56.2538Z" fill="black"/>
<path id="Vector_5" d="M89.7969 11.2839C88.2763 13.0454 86.417 13.9261 84.2189 13.9261C83.0672 13.9261 81.8477 13.5648 80.5755 12.8496C79.1302 11.9538 78.1291 10.501 77.5645 8.5062C77.429 8.00185 77.3236 7.4975 77.2559 6.9781C77.3387 5.0435 77.9785 3.44012 79.1754 2.16796C79.8303 1.46789 80.6207 0.925901 81.5391 0.564576C82.4574 0.195723 83.3683 0.0150604 84.2716 0.0150604C85.1749 0.0150604 86.0481 0.195723 86.9063 0.564576C87.7569 0.933429 88.5021 1.43025 89.1344 2.05504C89.7668 2.67983 90.2862 3.43259 90.6851 4.3058C91.0841 5.179 91.3024 6.1049 91.3475 7.08348C91.3325 7.8513 91.1895 8.60406 90.9185 9.34177C90.6475 10.0795 90.2786 10.7344 89.8044 11.2989L89.7969 11.2839ZM84.377 1.72383H84.2565C83.5414 1.72383 82.8564 1.87438 82.209 2.16796C81.5541 2.46153 80.9971 2.86802 80.5153 3.38743C80.0411 3.89931 79.7023 4.41118 79.5066 4.92306C79.3109 5.43494 79.1603 6.07479 79.0625 6.85013C79.0625 7.76097 79.2958 8.62664 79.7626 9.43963C80.2293 10.2526 80.8616 10.9075 81.652 11.3968C82.4424 11.8861 83.2403 12.1345 84.0382 12.1345C84.8362 12.1345 85.5588 11.9915 86.1987 11.713C86.8385 11.4344 87.4031 11.0505 87.8773 10.5763C88.3516 10.1021 88.7355 9.5149 89.029 8.83742C89.3151 8.15993 89.4656 7.45986 89.4656 6.73721C89.4656 6.01456 89.3301 5.35213 89.0516 4.7424C88.7731 4.13266 88.4043 3.60573 87.9451 3.17666C87.4859 2.74005 86.9439 2.39378 86.3191 2.13785C85.7018 1.87438 85.0545 1.73888 84.3845 1.73136L84.377 1.72383ZM87.0719 7.77602H87.1923L87.3052 7.7685C87.5687 7.7685 87.7192 7.82872 87.7569 7.94163C87.5687 8.76214 87.1848 9.45468 86.5976 10.0042C86.018 10.5537 85.3556 10.8322 84.6179 10.8322C83.1048 10.8322 81.9983 10.2451 81.2982 9.06324C80.9068 8.40834 80.7035 7.67064 80.6809 6.85766C80.7261 6.14253 80.9444 5.49516 81.3208 4.90048C81.7047 4.31332 82.1789 3.85414 82.751 3.53798C83.3156 3.21429 83.9178 3.05621 84.5351 3.05621C85.4007 3.05621 86.0857 3.30463 86.6052 3.79392C87.1246 4.29074 87.4708 4.95317 87.6515 5.78121C87.6289 5.8339 87.4934 5.85648 87.245 5.85648H87.0493L85.7696 5.84896L85.7018 5.78121C85.4911 5.12631 85.0695 4.80262 84.4372 4.80262C83.6167 4.80262 83.0973 5.27686 82.8865 6.22534C82.8338 6.45117 82.8112 6.69205 82.8112 6.9254C82.8112 7.47492 82.9392 7.94163 83.1951 8.33307C83.4511 8.7245 83.8199 8.91269 84.3017 8.91269C84.7835 8.91269 85.0921 8.79225 85.2276 8.55137C85.4384 8.16746 85.6115 7.91152 85.7545 7.78355C85.9126 7.7685 86.1159 7.7685 86.3793 7.7685H87.0643L87.0719 7.77602ZM87.6741 5.78121V5.79626H87.6665L87.6741 5.78121Z" fill="black"/>
</g>
<defs>
<clipPath id="clip0_44_2463">
<rect width="91.34" height="24.3066" fill="white"/>
</clipPath>
</defs>
</svg>
