<svg xmlns="http://www.w3.org/2000/svg" width="186" height="135" viewBox="0 0 186 135" fill="none">
<path d="M9.25088 132.532L1.59267 12.7769L176.486 1.59273L184.144 121.348L9.25088 132.532Z" fill="white" stroke="black" stroke-width="3"/>
<path d="M29.4003 61.956C26.8289 62.1204 24.7654 61.79 23.2097 60.9646C21.654 60.1392 20.4951 58.8902 19.7322 57.2049C18.9702 55.5324 18.5186 53.4931 18.3656 51.1008L17.5295 38.0263C17.3766 35.634 17.5655 33.5667 18.1091 31.8235C18.6528 30.0803 19.6439 28.7067 21.0843 27.7283C22.5238 26.737 24.5292 26.1592 27.1007 25.9948C29.6721 25.8303 31.7868 26.1575 33.3544 26.9693C34.9221 27.7811 36.093 29.0164 36.8526 30.6506C37.6122 32.2847 38.0637 34.324 38.2167 36.7163L39.0528 49.7908C39.2058 52.1831 39.0177 54.2632 38.4749 56.0192C37.932 57.7752 36.9417 59.1616 35.479 60.1928C34.0284 61.2105 31.9981 61.8027 29.4011 61.9688L29.4003 61.956ZM29.0706 56.8004C29.9917 56.7415 30.6567 56.4935 31.0646 56.0435C31.4726 55.5935 31.7181 55.0126 31.8266 54.2992C31.9223 53.5865 31.9508 52.8268 31.8984 52.0081L30.8382 35.4283C30.7866 34.6223 30.6616 33.8725 30.4767 33.1906C30.2918 32.5088 29.9616 31.9647 29.5004 31.5832C29.0385 31.1888 28.3474 31.0275 27.4263 31.0864C26.5563 31.142 25.9298 31.3876 25.5218 31.8376C25.1138 32.2876 24.8676 32.8557 24.7582 33.5563C24.6617 34.2561 24.6332 35.0158 24.6847 35.8218L25.745 52.4016C25.7965 53.2076 25.9088 53.9583 26.0825 54.6665C26.2554 55.3619 26.5729 55.9068 27.0348 56.3012C27.4968 56.6955 28.1751 56.8577 29.0706 56.8004Z" fill="black"/>
<path d="M43.2249 60.5967L40.9825 25.5309L50.0656 24.9501C52.4323 24.7987 54.4708 24.9381 56.1938 25.3674C57.9169 25.7968 59.2695 26.6608 60.2645 27.9588C61.2595 29.2568 61.8404 31.1079 61.9933 33.5002C62.0858 34.9458 62.0397 36.2333 61.867 37.349C61.6951 38.4776 61.3215 39.4649 60.7606 40.3357C60.1861 41.1945 59.3587 41.9154 58.264 42.4735L64.2055 59.255L56.8879 59.7229L51.842 44.0917L49.3346 44.252L50.3507 60.141L43.2121 60.5975L43.2249 60.5967ZM49.0766 40.0167L51.1491 39.8842C52.3004 39.8105 53.1965 39.5606 53.838 39.147C54.4795 38.7335 54.9032 38.1283 55.1356 37.3428C55.3552 36.558 55.4353 35.6023 55.3633 34.4765C55.2603 32.8646 54.8867 31.6425 54.2442 30.8358C53.6009 30.0163 52.4609 29.6653 50.849 29.7684L48.4311 29.923L49.0758 40.0039L49.0766 40.0167Z" fill="black"/>
<path d="M75.8929 59.0214C73.5262 59.1728 71.6138 58.7941 70.1683 57.8846C68.7228 56.9751 67.635 55.6317 66.9287 53.8271C66.2232 52.0354 65.7924 49.9177 65.6377 47.4998L64.8875 35.7686C64.7272 33.2612 64.896 31.0795 65.3811 29.2245C65.8662 27.3694 66.8388 25.9071 68.2982 24.8246C69.7448 23.743 71.7734 23.1252 74.3704 22.9591C76.9674 22.793 78.8877 23.0941 80.3993 23.8324C81.9109 24.5707 83.036 25.6934 83.7602 27.1757C84.498 28.6699 84.9213 30.4669 85.0554 32.565L85.1855 34.5991L78.2133 35.0449L78.0554 32.5759C77.9965 31.6548 77.893 30.8393 77.7328 30.143C77.5727 29.4468 77.268 28.9011 76.8205 28.5315C76.3722 28.1491 75.6947 27.9997 74.7736 28.0586C73.8525 28.1175 73.1388 28.4072 72.7485 28.9332C72.3447 29.4471 72.1161 30.0912 72.05 30.8661C71.984 31.641 71.9716 32.4511 72.0272 33.321L73.0212 48.8646C73.0842 49.8496 73.2294 50.7138 73.4456 51.4836C73.6746 52.2525 74.0329 52.8333 74.534 53.238C75.0352 53.6427 75.7399 53.816 76.6354 53.7588C77.5309 53.7015 78.207 53.427 78.6637 52.9354C79.1204 52.4438 79.4257 51.7948 79.5541 50.9902C79.6953 50.1847 79.7276 49.2835 79.6629 48.2729L79.4249 44.5501L76.0091 44.7685L75.7326 40.4445L85.596 39.8137L86.7471 57.8135L82.0776 58.1121L81.4406 54.9801C81.048 56.0713 80.4136 56.9982 79.5367 57.748C78.6597 58.4977 77.4409 58.9225 75.8802 59.0223L75.8929 59.0214Z" fill="black"/>
<path d="M88.6146 57.6941L93.1662 22.2067L101.085 21.7003L110.081 56.3213L103.455 56.7451L101.708 49.1238L96.169 49.4781L95.3182 57.2654L88.6146 57.6941ZM96.5416 45.0611L100.738 44.7928L97.7093 30.7795L96.5416 45.0611Z" fill="black"/>
<path d="M112.333 56.1773L110.09 21.1116L115.067 20.7933L124.026 38.5636L122.858 20.2951L128.743 19.9188L130.984 54.9717L126.225 55.2761L117.194 36.38L118.434 55.7743L112.332 56.1645L112.333 56.1773Z" fill="black"/>
<path d="M135.105 54.7213L132.862 19.6555L139.962 19.2015L142.204 54.2544L135.104 54.7085L135.105 54.7213Z" fill="black"/>
<path d="M156.039 53.8576C153.442 54.0237 151.351 53.6693 149.778 52.7807C148.206 51.8922 147.057 50.6041 146.331 48.8907C145.619 47.1893 145.181 45.1748 145.034 42.8721L144.229 30.2837C144.075 27.8658 144.248 25.7609 144.737 23.9698C145.227 22.1915 146.203 20.7676 147.664 19.7235C149.113 18.6803 151.142 18.0624 153.739 17.8964C156.336 17.7303 158.244 18.0322 159.73 18.7721C161.216 19.5121 162.302 20.6372 162.988 22.1219C163.675 23.6194 164.082 25.3661 164.211 27.3874L164.399 30.3298L157.478 30.7724L157.268 27.4846C157.217 26.6786 157.13 25.9263 156.995 25.2156C156.86 24.5177 156.593 23.9567 156.168 23.5343C155.755 23.1111 155.063 22.937 154.117 22.9975C153.17 23.0581 152.481 23.3333 152.088 23.8209C151.683 24.3093 151.453 24.9277 151.384 25.6643C151.316 26.4008 151.317 27.2229 151.374 28.1184L152.393 44.0457C152.456 45.0308 152.587 45.883 152.8 46.6016C153 47.321 153.343 47.8642 153.816 48.2322C154.289 48.5873 154.941 48.7511 155.773 48.6979C156.694 48.639 157.345 48.379 157.701 47.9067C158.056 47.4344 158.273 46.8168 158.328 46.0682C158.382 45.3069 158.383 44.5105 158.329 43.6789L158.111 40.2632L165.032 39.8206L165.218 42.7246C165.349 44.7715 165.171 46.6069 164.695 48.2173C164.22 49.8276 163.302 51.1324 161.953 52.1307C160.604 53.129 158.637 53.7171 156.066 53.8816L156.039 53.8576Z" fill="black"/>
<path d="M86.2039 101.946L86.3601 104.39C84.2555 106.631 82.4573 108.442 80.9792 109.833C79.4875 111.213 78.0012 112.477 76.5187 113.6C75.0234 114.723 73.7907 115.534 72.7823 116.035C71.7866 116.536 70.9178 116.81 70.1886 116.856C68.4488 116.968 66.9742 116.407 65.7914 115.185C64.5958 113.964 63.9385 112.323 63.8068 110.264C63.6562 107.91 63.9799 105.538 64.7921 103.174C65.6035 100.797 66.8074 98.3311 68.4149 95.7492C70.0225 93.1672 72.059 90.2624 74.5372 87.0339C76.3753 84.6427 77.2794 83.3132 77.2606 83.0189C77.2499 82.8526 77.177 82.716 77.0545 82.6082C76.932 82.5004 76.8 82.4447 76.6592 82.4537C76.2115 82.4823 74.8928 83.5557 72.7169 85.6859C70.5281 87.8169 67.7587 90.9099 64.3845 94.9921C61.0095 99.0616 57.4005 103.891 53.543 109.456C53.318 109.753 52.6373 110.76 51.4755 112.478C50.3137 114.197 49.4989 115.315 49.0063 115.847C48.5137 116.38 48.0815 116.651 47.7105 116.675C47.0453 116.718 46.4398 116.089 45.8686 114.789C45.2974 113.49 44.9635 112.085 44.867 110.576C44.8081 109.655 45.0393 108.651 45.5727 107.55C46.1061 106.45 47.2891 104.461 49.1353 101.594C50.9679 98.7146 52.4957 96.2919 53.6931 94.3271C54.8906 92.3622 56.1897 89.9798 57.6043 87.1918C58.5978 85.2529 59.3217 83.7165 59.7758 82.5828C60.23 81.449 60.4357 80.4468 60.3817 79.6024C60.335 78.8732 60.0938 78.5162 59.6717 78.5431C58.7761 78.6004 57.1644 79.911 54.8483 82.4611C52.5322 85.0113 49.6893 88.7642 46.3571 93.7043C43.013 98.6581 39.562 104.351 36.0057 110.808C34.8494 113.015 34.0191 114.494 33.5157 115.258C33.025 116.022 32.4474 116.431 31.7822 116.474C30.9506 116.527 30.1266 115.693 29.2981 113.986C28.4696 112.279 28.0206 110.882 27.9511 109.795C27.9282 109.437 28.0444 109.044 28.2988 108.604C31.1425 104.26 33.4753 100.565 35.2989 97.5458C37.1217 94.5133 38.724 91.6491 40.1059 88.9531C41.4878 86.2571 42.4889 84.0351 43.0846 82.3014C43.6802 80.5677 43.9541 79.2271 43.892 78.2549C43.8298 77.2826 43.3341 76.7619 42.413 76.8208C41.6582 76.8691 40.4099 77.4371 38.6547 78.5127C36.9003 79.6011 34.6946 81.0653 32.0256 82.9187C29.3567 84.7721 27.2253 86.1929 25.6059 87.1828C23.9865 88.1727 22.7742 88.6998 21.9426 88.753C21.1622 88.8029 20.7506 88.3925 20.695 87.5226C20.6631 87.0236 20.7566 85.8744 20.9755 84.0749C21.1944 82.2754 21.4469 81.0004 21.7584 80.2483C22.1968 79.2697 23.384 77.9478 25.3183 76.257C27.2525 74.5661 28.3292 73.7266 28.5467 73.7127C28.7386 73.7004 28.8331 73.7714 28.8437 73.9377C28.8494 74.0273 28.7689 74.1737 28.5893 74.3779C27.6669 75.2205 26.9914 75.9059 26.5491 76.4223C26.1077 76.9515 25.8478 77.5076 25.7703 78.1035C29.9155 75.2308 33.653 73.0136 36.9692 71.4399C40.2855 69.8663 42.6088 69.0369 43.9265 68.9526C44.5918 68.9101 45.2345 69.3186 45.8922 70.1628C46.5371 71.0079 47.1015 71.9994 47.5861 73.1502C48.0708 74.301 48.3229 75.0299 48.3442 75.3625C48.4211 76.5651 48.2048 78.0047 47.6955 79.6815C47.1862 81.3583 46.4765 83.3176 45.5657 85.5468C44.6558 87.7887 43.5235 90.5714 42.1842 93.9327C43.3117 92.2806 44.3818 90.7349 45.4088 89.3205C46.4359 87.906 47.4527 86.5308 48.4583 85.1819C49.4775 83.8451 50.5079 82.4818 51.551 81.1177C52.9733 79.2541 54.5796 77.4558 56.3946 75.7084C58.2097 73.9609 59.9045 72.5423 61.5013 71.3997C63.0981 70.2571 64.192 69.6862 64.7805 69.6486C65.6121 69.5954 66.3699 69.9965 67.0804 70.8631C67.791 71.7297 68.173 72.6815 68.2392 73.7178C68.2826 74.3958 67.9191 75.7421 67.1471 77.7311C66.3751 79.7201 65.2289 82.2854 63.6941 85.4022C62.1601 88.5319 60.1445 92.5657 57.6216 97.5056C60.1257 94.4809 62.7272 91.373 65.4381 88.1681C68.1491 84.9632 70.1576 82.6254 71.4885 81.1401C72.8193 79.6549 73.9284 78.5178 74.8156 77.7289C76.0447 76.6612 77.2809 75.5031 78.513 74.2811C79.7451 73.059 80.7232 72.0845 81.4363 71.3838C82.1485 70.6703 82.7819 70.1288 83.3474 69.7329C83.913 69.3371 84.4397 69.1364 84.9386 69.1045C85.5527 69.0653 86.3653 69.7198 87.39 71.0801C88.4147 72.4404 88.9333 73.3193 88.9587 73.7158C88.9906 74.2148 88.7468 74.8213 88.24 75.5345C87.7333 76.2477 86.6637 77.6006 85.0305 79.5805C82.0395 83.2271 79.4851 86.8716 77.3554 90.5274C75.2256 94.1832 73.6383 97.4832 72.6078 100.452C71.5774 103.421 71.1217 105.737 71.2289 107.413C71.2952 108.449 71.5353 109.191 71.9622 109.639C72.3891 110.087 73.005 110.279 73.8238 110.227C74.5786 110.179 75.2732 109.993 75.9077 109.67C76.5421 109.347 77.2332 108.904 77.9928 108.329C78.7524 107.754 79.4633 107.22 80.1367 106.702C81.0841 106.05 82.0163 105.361 82.9324 104.622C83.8485 103.882 84.557 103.31 85.057 102.893C85.5569 102.476 85.9355 102.169 86.1935 101.985L86.2039 101.946Z" fill="black"/>
<path d="M89.5303 103.146L89.5868 104.029C89.676 105.424 90.0901 106.476 90.818 107.213C91.546 107.95 92.466 108.277 93.579 108.206C94.692 108.134 95.9158 107.786 97.1215 107.157C98.3281 106.54 99.5096 105.733 100.68 104.758C101.851 103.784 103.271 102.486 104.94 100.864L105.078 103.026C102.623 106.407 100.272 109.024 98.0528 110.874C95.8341 112.737 93.5086 113.734 91.1035 113.887C89.0055 114.022 87.29 113.309 85.958 111.763C84.626 110.217 83.8695 108.03 83.6887 105.203C83.53 102.721 83.9626 100.445 84.9975 98.3496C86.0196 96.2547 87.7771 94.0099 90.2438 91.6043C91.9366 89.9546 93.6412 88.6895 95.3568 87.7962C97.0723 86.9029 98.6341 86.4177 100.016 86.3293C101.129 86.2582 102.015 86.4584 102.699 86.9156C103.385 87.3856 103.753 88.1199 103.817 89.1306C103.912 90.6146 103.457 92.1337 102.438 93.6761C101.419 95.2185 99.8237 96.7849 97.6398 98.3889C95.4551 99.9802 92.7434 101.567 89.5159 103.122L89.5303 103.146ZM89.7413 100.821C91.8126 99.8663 93.5629 98.7139 94.9948 97.402C96.4258 96.0773 97.4644 94.842 98.1088 93.6704C98.7532 92.4988 99.0591 91.6571 99.0263 91.1454C98.9936 90.6337 98.7309 90.3422 98.232 90.3741C97.8098 90.4011 97.1362 90.7139 96.2119 91.3254C95.2876 91.9368 94.3731 92.7018 93.4436 93.6347C92.527 94.5668 91.7097 95.6467 91.0054 96.8864C90.3011 98.126 89.884 99.4372 89.7293 100.834L89.7413 100.821Z" fill="black"/>
<path d="M106.494 94.4314C109.868 90.9529 113.193 88.3125 116.457 86.511C119.72 84.7095 122.28 83.7623 124.122 83.6445C124.621 83.6126 125.094 83.7878 125.543 84.1702C125.991 84.5526 126.355 85.0174 126.645 85.5384C126.922 86.0601 127.077 86.4613 127.093 86.7172C127.12 87.1394 126.974 87.4698 126.654 87.683C126.333 87.8962 125.774 88.1888 124.973 88.5226C125.164 88.8958 125.399 89.3561 125.705 89.9274C125.999 90.4995 126.234 90.9597 126.398 91.3217C126.563 91.6837 126.66 91.9986 126.678 92.2801C126.714 92.843 126.206 93.9416 125.166 95.5496C124.125 97.1576 123.393 98.3605 122.979 99.1191C122.565 99.8778 122.392 100.788 122.46 101.85C122.571 103.59 123.434 104.421 125.033 104.319C126.632 104.216 129.168 102.5 132.476 99.1926L132.615 101.355C127.077 108.363 123.016 111.949 120.445 112.114C119.523 112.173 118.852 111.92 118.429 111.331C117.994 110.755 117.745 109.871 117.67 108.694C117.55 106.827 118.043 104.085 119.173 100.467C115.976 104.512 113.591 107.388 112.018 109.107C110.446 110.826 109.116 111.721 108.041 111.789C107.516 111.823 106.848 111.416 106.01 110.57C105.173 109.725 104.408 108.605 103.715 107.223C103.023 105.842 102.634 104.377 102.536 102.841C102.465 101.728 102.508 100.801 102.678 100.045C102.848 99.2889 103.21 98.508 103.774 97.6883C104.338 96.8687 105.245 95.783 106.506 94.4178L106.494 94.4314ZM123.183 89.4592C117.235 92.6527 113.024 95.3112 110.54 97.4355C108.055 99.5597 106.892 101.664 107.025 103.736C107.073 104.491 107.24 105.097 107.527 105.567C107.814 106.036 108.188 106.256 108.636 106.228C108.892 106.211 109.342 106.016 109.986 105.641C112.374 104.023 114.504 101.973 116.414 99.5004C118.311 97.0284 120.575 93.6723 123.196 89.4584L123.183 89.4592Z" fill="black"/>
<path d="M141.213 80.1366L142.735 80.0393C143.846 77.7203 144.87 76.062 145.821 75.0635C146.772 74.065 147.894 73.5308 149.199 73.4473C150.504 73.3639 151.162 73.6172 151.2 74.2057C151.218 74.4871 150.755 75.2875 149.825 76.6058C148.894 77.9241 148.194 79.0223 147.723 79.9001C148.535 79.9382 149.244 79.9827 149.875 80.0066C150.506 80.0305 150.997 80.0633 151.358 80.0916C150.174 82.6722 148.649 85.3388 146.796 88.0906C146.127 88.082 145.575 88.0788 145.124 88.069C144.674 88.0593 144.211 88.0503 143.762 88.0534C143.299 88.0445 142.733 88.0421 142.078 88.0326C140.929 90.1613 139.985 92.0714 139.231 93.7382C138.477 95.4049 137.907 96.9314 137.532 98.3041C137.158 99.6769 137.009 100.971 137.086 102.173C137.19 103.798 137.895 104.575 139.187 104.493C140.082 104.435 141.229 103.887 142.613 102.835C143.998 101.783 145.849 100.2 148.153 98.0617L148.304 100.428C142.375 107.744 137.901 111.498 134.856 111.693C133.794 111.761 132.911 111.407 132.218 110.616C131.513 109.839 131.125 108.797 131.042 107.493C130.986 106.623 131.099 105.575 131.393 104.349C131.687 103.122 132.224 101.264 133.002 98.7737C132.688 99.0764 132.398 99.3775 132.121 99.6649C131.844 99.9524 131.592 100.225 131.35 100.459C131.122 100.705 130.868 100.953 130.602 101.214C130.336 101.475 130.071 101.749 129.806 102.022L129.65 99.579C131.986 97.3486 134.759 93.5103 137.932 88.0794C137.572 88.0767 137.251 88.0844 136.943 88.0912C136.636 88.1108 136.277 88.121 135.842 88.1488C134.448 88.2379 133.417 88.3938 132.752 88.629C132.475 88.7238 132.211 88.8177 131.973 88.91C131.736 89.0151 131.559 89.0649 131.47 89.0707C131.38 89.0764 131.324 89.0029 131.315 88.8622C131.265 88.0818 131.677 86.8866 132.536 85.2645C133.233 83.8969 133.899 82.8652 134.562 82.1933C135.212 81.5095 136.042 81.0325 137.025 80.7384C138.009 80.4443 139.409 80.252 141.226 80.1358L141.213 80.1366Z" fill="black"/>
<path d="M145.827 99.2639L145.773 98.4196C151.44 91.6217 155.336 86.8638 157.462 84.146C157.788 81.2092 158.949 79.6834 160.932 79.5566C161.431 79.5247 161.965 79.6319 162.545 79.8773L162.806 80.5415C162.735 80.8286 162.709 81.2285 162.742 81.753C162.771 82.2008 162.991 83.0217 163.414 84.2149C163.837 85.4082 164.158 86.4153 164.402 87.2218C164.647 88.041 164.796 88.9564 164.862 89.9926C164.962 91.5534 164.699 93.0603 164.087 94.5381C163.475 96.0159 162.538 97.4374 161.279 98.841C160.019 100.232 158.378 101.686 156.342 103.19C157.195 103.277 157.878 103.31 158.377 103.278C159.349 103.216 160.37 102.907 161.465 102.349C162.559 101.791 163.657 101.078 164.769 100.185C165.881 99.2918 167.183 98.1552 168.648 96.7641L168.799 99.1308C165.968 102.266 163.412 104.678 161.13 106.352C158.848 108.027 156.849 108.912 155.122 109.023C152.909 109.164 150.789 108.349 148.788 106.589C147.603 105.535 146.842 104.491 146.508 103.472C146.173 102.453 145.942 101.055 145.829 99.2895L145.827 99.2639ZM158.671 93.009L157.701 87.8815C156.348 89.6251 153.429 92.9974 148.932 97.9992C150.372 98.2154 151.357 98.5635 151.916 99.0544C152.474 99.5454 153.267 100.497 154.295 101.921C155.852 101.153 157.036 100.179 157.82 98.9851C158.604 97.7917 158.939 96.2032 158.813 94.2203C158.798 93.99 158.784 93.7725 158.759 93.5814C158.734 93.3904 158.71 93.2121 158.672 93.0218L158.671 93.009Z" fill="black"/>
</svg>